/* XPM */
static char *_c8d6e3677ab450182a4b8904fe1d0f39aRoHh5CtHXrhf3T[] = {
/* columns rows colors chars-per-pixel */
"50 50 2 1 ",
"  c black",
". c white",
/* pixels */
"..................................................",
"..................................................",
"..................................................",
"..................................................",
"..................................................",
"..................................................",
"..................................................",
"..................................................",
"..................................................",
"..................................................",
"..................................................",
"..................................................",
".........       ..................       .........",
".........       ..................       .........",
".........       ..................       .........",
".........       ..................       .........",
".........       ..................       .........",
"..................................................",
"..................................................",
"..................................................",
"..................................................",
"..................................................",
"....................... ..........................",
"......................  ..........................",
"...................... ...........................",
".....................  ...........................",
"..................... ............................",
"..................... ............................",
".....................  ...........................",
".......................     ......................",
"..................................................",
"..................................................",
"..................................................",
"..................................................",
"....... ..........................................",
"....... .................................  .......",
".......  ................................ ........",
"........  ..............................  ........",
".........  ............................  .........",
"..........   ........................  ...........",
".............    ...................  ............",
"................      ............   .............",
".....................             ................",
"..................................................",
"..................................................",
"..................................................",
"..................................................",
"..................................................",
"..................................................",
".................................................."
};
